<mxfile host="app.diagrams.net" modified="2023-07-27T03:46:16.627Z" agent="Mozilla/5.0 (Macintosh; Intel Mac OS X 10_15_7) AppleWebKit/537.36 (KHTML, like Gecko) Chrome/115.0.0.0 Safari/537.36 Edg/115.0.0.0" etag="o222sktuIhnHsA9rTLtt" version="21.6.5" type="github">
  <diagram id="prtHgNgQTEPvFCAcTncT" name="Page-1">
    <mxGraphModel dx="1758" dy="598" grid="1" gridSize="10" guides="1" tooltips="1" connect="1" arrows="1" fold="1" page="1" pageScale="1" pageWidth="827" pageHeight="1169" math="0" shadow="0">
      <root>
        <mxCell id="0" />
        <mxCell id="1" parent="0" />
        <mxCell id="dNxyNK7c78bLwvsdeMH5-11" value="framework" style="swimlane;html=1;startSize=20;horizontal=1;containerType=tree;glass=0;" parent="1" vertex="1">
          <mxGeometry x="-130" y="210" width="1040" height="860" as="geometry" />
        </mxCell>
        <mxCell id="_fiC6rg8MqPyOgdjHuqw-3" style="edgeStyle=orthogonalEdgeStyle;rounded=0;orthogonalLoop=1;jettySize=auto;html=1;entryX=0.5;entryY=0;entryDx=0;entryDy=0;" edge="1" parent="dNxyNK7c78bLwvsdeMH5-11" source="dNxyNK7c78bLwvsdeMH5-12" target="_fiC6rg8MqPyOgdjHuqw-4">
          <mxGeometry relative="1" as="geometry">
            <mxPoint x="140" y="310" as="targetPoint" />
          </mxGeometry>
        </mxCell>
        <mxCell id="_fiC6rg8MqPyOgdjHuqw-8" style="edgeStyle=orthogonalEdgeStyle;rounded=0;orthogonalLoop=1;jettySize=auto;html=1;" edge="1" parent="dNxyNK7c78bLwvsdeMH5-11" source="dNxyNK7c78bLwvsdeMH5-12" target="_fiC6rg8MqPyOgdjHuqw-5">
          <mxGeometry relative="1" as="geometry" />
        </mxCell>
        <mxCell id="_fiC6rg8MqPyOgdjHuqw-9" style="edgeStyle=orthogonalEdgeStyle;rounded=0;orthogonalLoop=1;jettySize=auto;html=1;" edge="1" parent="dNxyNK7c78bLwvsdeMH5-11" source="dNxyNK7c78bLwvsdeMH5-12" target="_fiC6rg8MqPyOgdjHuqw-6">
          <mxGeometry relative="1" as="geometry" />
        </mxCell>
        <mxCell id="_fiC6rg8MqPyOgdjHuqw-22" style="edgeStyle=orthogonalEdgeStyle;rounded=0;orthogonalLoop=1;jettySize=auto;html=1;entryX=0.5;entryY=0;entryDx=0;entryDy=0;" edge="1" parent="dNxyNK7c78bLwvsdeMH5-11" source="dNxyNK7c78bLwvsdeMH5-12" target="_fiC6rg8MqPyOgdjHuqw-21">
          <mxGeometry relative="1" as="geometry" />
        </mxCell>
        <mxCell id="_fiC6rg8MqPyOgdjHuqw-26" value="entity [model、auth、router.soforth]]" style="edgeLabel;html=1;align=center;verticalAlign=middle;resizable=0;points=[];" vertex="1" connectable="0" parent="_fiC6rg8MqPyOgdjHuqw-22">
          <mxGeometry x="0.0179" y="-2" relative="1" as="geometry">
            <mxPoint as="offset" />
          </mxGeometry>
        </mxCell>
        <mxCell id="_fiC6rg8MqPyOgdjHuqw-35" style="edgeStyle=orthogonalEdgeStyle;rounded=0;orthogonalLoop=1;jettySize=auto;html=1;entryX=0.5;entryY=0;entryDx=0;entryDy=0;" edge="1" parent="dNxyNK7c78bLwvsdeMH5-11" source="dNxyNK7c78bLwvsdeMH5-12" target="_fiC6rg8MqPyOgdjHuqw-39">
          <mxGeometry relative="1" as="geometry">
            <mxPoint x="730" y="60" as="targetPoint" />
          </mxGeometry>
        </mxCell>
        <mxCell id="_fiC6rg8MqPyOgdjHuqw-46" value="register model, auth, router,se" style="edgeLabel;html=1;align=center;verticalAlign=middle;resizable=0;points=[];" vertex="1" connectable="0" parent="_fiC6rg8MqPyOgdjHuqw-35">
          <mxGeometry x="0.5264" y="-4" relative="1" as="geometry">
            <mxPoint as="offset" />
          </mxGeometry>
        </mxCell>
        <UserObject label="Admin" name="Tessa Miller" position="CFO" location="Office 1" email="me@example.com" placeholders="1" id="dNxyNK7c78bLwvsdeMH5-12">
          <mxCell style="label;image=https://cdn-icons-png.flaticon.com/128/2818/2818280.png;whiteSpace=wrap;html=1;rounded=0;glass=0;treeMoving=1;treeFolding=1;" parent="dNxyNK7c78bLwvsdeMH5-11" vertex="1">
            <mxGeometry x="260" y="50" width="180" height="180" as="geometry" />
          </mxCell>
        </UserObject>
        <UserObject label="Proxy" name="Tessa Miller" position="CFO" location="Office 1" email="me@example.com" placeholders="1" id="_fiC6rg8MqPyOgdjHuqw-4">
          <mxCell style="label;image=https://cdn-icons-png.flaticon.com/128/9872/9872375.png;whiteSpace=wrap;html=1;rounded=0;glass=0;treeMoving=1;treeFolding=1;" vertex="1" parent="dNxyNK7c78bLwvsdeMH5-11">
            <mxGeometry x="40" y="260" width="180" height="180" as="geometry" />
          </mxCell>
        </UserObject>
        <UserObject label="Proxy" name="Tessa Miller" position="CFO" location="Office 1" email="me@example.com" placeholders="1" id="_fiC6rg8MqPyOgdjHuqw-5">
          <mxCell style="label;image=https://cdn-icons-png.flaticon.com/128/9872/9872375.png;whiteSpace=wrap;html=1;rounded=0;glass=0;treeMoving=1;treeFolding=1;" vertex="1" parent="dNxyNK7c78bLwvsdeMH5-11">
            <mxGeometry x="260" y="260" width="180" height="180" as="geometry" />
          </mxCell>
        </UserObject>
        <mxCell id="_fiC6rg8MqPyOgdjHuqw-23" style="edgeStyle=orthogonalEdgeStyle;rounded=0;orthogonalLoop=1;jettySize=auto;html=1;entryX=0;entryY=0.5;entryDx=0;entryDy=0;" edge="1" parent="dNxyNK7c78bLwvsdeMH5-11" source="_fiC6rg8MqPyOgdjHuqw-6" target="_fiC6rg8MqPyOgdjHuqw-21">
          <mxGeometry relative="1" as="geometry" />
        </mxCell>
        <mxCell id="_fiC6rg8MqPyOgdjHuqw-25" value="entity" style="edgeLabel;html=1;align=center;verticalAlign=middle;resizable=0;points=[];" vertex="1" connectable="0" parent="_fiC6rg8MqPyOgdjHuqw-23">
          <mxGeometry x="-0.375" y="-3" relative="1" as="geometry">
            <mxPoint as="offset" />
          </mxGeometry>
        </mxCell>
        <mxCell id="_fiC6rg8MqPyOgdjHuqw-47" style="edgeStyle=orthogonalEdgeStyle;rounded=0;orthogonalLoop=1;jettySize=auto;html=1;entryX=-0.023;entryY=0.292;entryDx=0;entryDy=0;entryPerimeter=0;" edge="1" parent="dNxyNK7c78bLwvsdeMH5-11" source="_fiC6rg8MqPyOgdjHuqw-6" target="_fiC6rg8MqPyOgdjHuqw-39">
          <mxGeometry relative="1" as="geometry" />
        </mxCell>
        <mxCell id="_fiC6rg8MqPyOgdjHuqw-48" value="subscribe. auth router" style="edgeLabel;html=1;align=center;verticalAlign=middle;resizable=0;points=[];" vertex="1" connectable="0" parent="_fiC6rg8MqPyOgdjHuqw-47">
          <mxGeometry x="-0.2535" y="-1" relative="1" as="geometry">
            <mxPoint as="offset" />
          </mxGeometry>
        </mxCell>
        <UserObject label="Proxy" name="Tessa Miller" position="CFO" location="Office 1" email="me@example.com" placeholders="1" link="https://www.draw.io" id="_fiC6rg8MqPyOgdjHuqw-6">
          <mxCell style="label;image=https://cdn-icons-png.flaticon.com/128/9872/9872375.png;whiteSpace=wrap;html=1;rounded=0;glass=0;treeMoving=1;treeFolding=1;" vertex="1" parent="dNxyNK7c78bLwvsdeMH5-11">
            <mxGeometry x="480" y="260" width="180" height="180" as="geometry" />
          </mxCell>
        </UserObject>
        <mxCell id="_fiC6rg8MqPyOgdjHuqw-15" value="" style="edgeStyle=orthogonalEdgeStyle;rounded=0;orthogonalLoop=1;jettySize=auto;html=1;" edge="1" source="dNxyNK7c78bLwvsdeMH5-12" target="_fiC6rg8MqPyOgdjHuqw-16" parent="dNxyNK7c78bLwvsdeMH5-11">
          <mxGeometry relative="1" as="geometry" />
        </mxCell>
        <UserObject label="Serving" name="Tessa Miller" position="CFO" location="Office 1" email="me@example.com" placeholders="1" id="_fiC6rg8MqPyOgdjHuqw-16">
          <mxCell style="label;image=https://cdn-icons-png.flaticon.com/128/5442/5442076.png;whiteSpace=wrap;html=1;rounded=0;glass=0;treeMoving=1;treeFolding=1;" vertex="1" parent="dNxyNK7c78bLwvsdeMH5-11">
            <mxGeometry x="40" y="450" width="180" height="180" as="geometry" />
          </mxCell>
        </UserObject>
        <mxCell id="_fiC6rg8MqPyOgdjHuqw-17" value="" style="edgeStyle=orthogonalEdgeStyle;rounded=0;orthogonalLoop=1;jettySize=auto;html=1;" edge="1" source="dNxyNK7c78bLwvsdeMH5-12" target="_fiC6rg8MqPyOgdjHuqw-18" parent="dNxyNK7c78bLwvsdeMH5-11">
          <mxGeometry relative="1" as="geometry" />
        </mxCell>
        <UserObject label="Serving" name="Tessa Miller" position="CFO" location="Office 1" email="me@example.com" placeholders="1" id="_fiC6rg8MqPyOgdjHuqw-18">
          <mxCell style="label;image=https://cdn-icons-png.flaticon.com/128/5442/5442076.png;whiteSpace=wrap;html=1;rounded=0;glass=0;treeMoving=1;treeFolding=1;" vertex="1" parent="dNxyNK7c78bLwvsdeMH5-11">
            <mxGeometry x="260" y="445" width="180" height="180" as="geometry" />
          </mxCell>
        </UserObject>
        <mxCell id="_fiC6rg8MqPyOgdjHuqw-19" value="" style="edgeStyle=orthogonalEdgeStyle;rounded=0;orthogonalLoop=1;jettySize=auto;html=1;" edge="1" source="dNxyNK7c78bLwvsdeMH5-12" target="_fiC6rg8MqPyOgdjHuqw-20" parent="dNxyNK7c78bLwvsdeMH5-11">
          <mxGeometry relative="1" as="geometry" />
        </mxCell>
        <mxCell id="_fiC6rg8MqPyOgdjHuqw-24" style="edgeStyle=orthogonalEdgeStyle;rounded=0;orthogonalLoop=1;jettySize=auto;html=1;entryX=0.5;entryY=1;entryDx=0;entryDy=0;" edge="1" parent="dNxyNK7c78bLwvsdeMH5-11" source="_fiC6rg8MqPyOgdjHuqw-20" target="_fiC6rg8MqPyOgdjHuqw-21">
          <mxGeometry relative="1" as="geometry" />
        </mxCell>
        <mxCell id="_fiC6rg8MqPyOgdjHuqw-49" style="edgeStyle=orthogonalEdgeStyle;rounded=0;orthogonalLoop=1;jettySize=auto;html=1;entryX=0;entryY=0.5;entryDx=0;entryDy=0;" edge="1" parent="dNxyNK7c78bLwvsdeMH5-11" source="_fiC6rg8MqPyOgdjHuqw-20" target="_fiC6rg8MqPyOgdjHuqw-39">
          <mxGeometry relative="1" as="geometry">
            <Array as="points">
              <mxPoint x="705" y="535" />
              <mxPoint x="705" y="660" />
              <mxPoint x="750" y="660" />
            </Array>
          </mxGeometry>
        </mxCell>
        <mxCell id="_fiC6rg8MqPyOgdjHuqw-50" value="subscribe model" style="edgeLabel;html=1;align=center;verticalAlign=middle;resizable=0;points=[];" vertex="1" connectable="0" parent="_fiC6rg8MqPyOgdjHuqw-49">
          <mxGeometry x="0.1143" y="-2" relative="1" as="geometry">
            <mxPoint as="offset" />
          </mxGeometry>
        </mxCell>
        <UserObject label="Serving" name="Tessa Miller" position="CFO" location="Office 1" email="me@example.com" placeholders="1" id="_fiC6rg8MqPyOgdjHuqw-20">
          <mxCell style="label;image=https://cdn-icons-png.flaticon.com/128/5442/5442076.png;whiteSpace=wrap;html=1;rounded=0;glass=0;treeMoving=1;treeFolding=1;" vertex="1" parent="dNxyNK7c78bLwvsdeMH5-11">
            <mxGeometry x="480" y="445" width="180" height="180" as="geometry" />
          </mxCell>
        </UserObject>
        <mxCell id="_fiC6rg8MqPyOgdjHuqw-21" value="" style="shape=datastore;whiteSpace=wrap;html=1;" vertex="1" parent="dNxyNK7c78bLwvsdeMH5-11">
          <mxGeometry x="860" y="400" width="60" height="60" as="geometry" />
        </mxCell>
        <mxCell id="_fiC6rg8MqPyOgdjHuqw-39" value="zookeeper" style="label;image=https://zookeeper.apache.org/images/zookeeper_small.gif;rounded=0;whiteSpace=wrap;html=1;" vertex="1" parent="dNxyNK7c78bLwvsdeMH5-11">
          <mxGeometry x="750" y="560" width="180" height="180" as="geometry" />
        </mxCell>
        <UserObject label="Admin" name="Tessa Miller" position="CFO" location="Office 1" email="me@example.com" placeholders="1" id="_fiC6rg8MqPyOgdjHuqw-41">
          <mxCell style="label;image=https://cdn-icons-png.flaticon.com/128/2818/2818280.png;whiteSpace=wrap;html=1;rounded=0;glass=0;treeMoving=1;treeFolding=1;" vertex="1" parent="dNxyNK7c78bLwvsdeMH5-11">
            <mxGeometry x="250" y="50" width="180" height="180" as="geometry" />
          </mxCell>
        </UserObject>
      </root>
    </mxGraphModel>
  </diagram>
</mxfile>
